<svg width="120" height="32" viewBox="0 0 120 32" fill="none" xmlns="http://www.w3.org/2000/svg">
<path d="M10.5118 18.8441L14.6798 7.04059H20.7003L10.5529 31.9999H4.1983L7.10138 25.1612L0 7.04059H6.14738L10.5118 18.8441Z" fill="#84BD00"/>
<path d="M41.9473 25.3005H36.0768V23.2853C35.1523 24.0097 34.1569 24.6388 33.1058 25.163C32.2066 25.5917 31.1347 25.8055 29.8901 25.8043C27.8761 25.8043 26.3278 25.2249 25.2452 24.066C24.1625 22.9072 23.6183 21.1939 23.6123 18.9262V7.04059H29.4774V16.0982C29.4774 17.02 29.5072 17.787 29.5667 18.3992C29.6031 18.9284 29.7439 19.4451 29.9812 19.9195C30.1797 20.3128 30.5105 20.6235 30.9156 20.7967C31.3336 20.9813 31.9166 21.0736 32.6646 21.0736C33.2277 21.0628 33.7863 20.9695 34.3224 20.7967C34.9421 20.6069 35.5329 20.3334 36.0786 19.9839V7.04059H41.9473V25.3005Z" fill="#84BD00"/>
<path d="M65.5649 15.9196C65.5649 18.7923 64.7717 21.1338 63.1853 22.9442C61.5989 24.7545 59.6206 25.6596 57.2505 25.6596C56.3466 25.6737 55.445 25.5643 54.5707 25.3345C53.8023 25.1164 53.0654 24.7993 52.3787 24.3912L52.1339 25.3006H46.51V0H52.3805V8.94327C53.2281 8.25922 54.1519 7.67533 55.1335 7.20321C56.1497 6.74166 57.2565 6.51394 58.3724 6.53684C60.6782 6.53684 62.454 7.37055 63.6998 9.03796C64.9456 10.7054 65.5673 12.9992 65.5649 15.9196ZM59.5337 16.0411C59.5337 14.4165 59.2574 13.166 58.7047 12.2894C58.1521 11.4128 57.1683 10.9745 55.7534 10.9745C55.1763 10.9782 54.6026 11.063 54.0491 11.2264C53.4637 11.3912 52.9021 11.6314 52.3787 11.941V21.0969C52.7673 21.2406 53.1696 21.3442 53.5792 21.406C54.0312 21.4648 54.4866 21.4923 54.9423 21.4881C56.4906 21.4881 57.6424 21.0332 58.3974 20.1233C59.1525 19.2133 59.5319 17.8526 59.5355 16.0411H59.5337Z" fill="#84BD00"/>
<path d="M75.4622 4.43948H69.2666V0H75.4622V4.43948ZM75.2996 25.3006H69.4292V7.04064H75.2996V25.3006Z" fill="#84BD00"/>
<path d="M90.2902 25.7881C88.8177 25.8033 87.3505 25.612 85.9311 25.22C84.6777 24.8736 83.5077 24.2761 82.4921 23.4639C81.5167 22.6591 80.7475 21.6332 80.2482 20.4715C79.7182 19.2698 79.4526 17.8608 79.4514 16.2446C79.4514 14.5415 79.7361 13.0724 80.3054 11.8373C80.8454 10.6394 81.6615 9.58636 82.6868 8.76448C83.7023 7.98027 84.8633 7.40524 86.1026 7.07266C87.4108 6.71285 88.7619 6.53255 90.1187 6.53671C91.2799 6.52672 92.4377 6.66297 93.5648 6.94224C94.5779 7.19949 95.5638 7.55366 96.509 7.99986V12.9914H95.6801C95.4538 12.796 95.1804 12.5686 94.8601 12.3089C94.4931 12.0169 94.0988 11.7608 93.6828 11.5443C93.2176 11.2976 92.7285 11.0989 92.2232 10.9512C91.6182 10.7851 90.9925 10.7069 90.3652 10.7189C88.805 10.7189 87.6056 11.215 86.7672 12.2071C85.9287 13.1992 85.5119 14.5462 85.5166 16.2482C85.5166 18.0049 85.9466 19.3382 86.8065 20.2482C87.6664 21.1581 88.8872 21.6131 90.4688 21.6131C91.1401 21.6215 91.8093 21.5367 92.4572 21.3612C92.9698 21.2246 93.4636 21.0254 93.9275 20.768C94.2709 20.5688 94.5967 20.3405 94.9012 20.0856C95.1834 19.8462 95.4371 19.614 95.6801 19.3853H96.509V24.3875C95.5781 24.8183 94.6085 25.1599 93.6131 25.4076C92.5254 25.6712 91.4093 25.799 90.2902 25.7881Z" fill="#84BD00"/>
<path d="M119.905 16.1788C119.905 19.1825 119.03 21.5484 117.279 23.2766C115.528 25.0047 113.07 25.8694 109.904 25.8706C106.739 25.8706 104.28 25.0059 102.53 23.2766C100.779 21.5472 99.9034 19.1813 99.9034 16.1788C99.9034 13.1536 100.785 10.7799 102.547 9.05774C104.31 7.33554 106.762 6.47385 109.904 6.47266C113.091 6.47266 115.555 7.33971 117.295 9.07382C119.035 10.8079 119.905 13.1762 119.905 16.1788ZM112.702 20.6182C113.097 20.1206 113.387 19.5481 113.554 18.9354C113.746 18.2791 113.841 17.371 113.84 16.2109C113.858 15.3029 113.76 14.3962 113.547 13.5133C113.397 12.8832 113.118 12.2908 112.729 11.7732C112.408 11.3481 111.975 11.0213 111.478 10.83C110.974 10.6426 110.439 10.5488 109.901 10.553C109.39 10.5455 108.882 10.6222 108.397 10.7799C107.908 10.9706 107.477 11.2845 107.146 11.6911C106.742 12.2043 106.451 12.7973 106.292 13.4311C106.06 14.3389 105.953 15.2742 105.974 16.2109C105.96 17.0836 106.053 17.9548 106.251 18.8049C106.392 19.4449 106.669 20.0469 107.064 20.57C107.395 20.9802 107.826 21.2993 108.314 21.4972C109.335 21.8775 110.457 21.8857 111.484 21.5204C111.965 21.3379 112.387 21.0257 112.702 20.6182Z" fill="#84BD00"/>
</svg>
